<mxfile host="app.diagrams.net" modified="2024-02-25T15:02:54.637Z" agent="Mozilla/5.0 (X11; CrOS x86_64 14541.0.0) AppleWebKit/537.36 (KHTML, like Gecko) Chrome/121.0.0.0 Safari/537.36" etag="IvRNqxfsgUGVIQkbOeaK" version="23.1.6" type="device">
  <diagram name="Page-1" id="czhPVp4otLusDQJ_ARxL">
    <mxGraphModel dx="978" dy="1680" grid="1" gridSize="10" guides="1" tooltips="1" connect="1" arrows="1" fold="1" page="1" pageScale="1" pageWidth="827" pageHeight="1169" math="0" shadow="0">
      <root>
        <mxCell id="0" />
        <mxCell id="1" parent="0" />
        <mxCell id="HXEkVQRq5ir49rnPmt96-37" style="edgeStyle=orthogonalEdgeStyle;rounded=0;orthogonalLoop=1;jettySize=auto;html=1;entryX=0;entryY=0.5;entryDx=0;entryDy=0;" edge="1" parent="1" source="HXEkVQRq5ir49rnPmt96-39" target="HXEkVQRq5ir49rnPmt96-46">
          <mxGeometry relative="1" as="geometry" />
        </mxCell>
        <mxCell id="HXEkVQRq5ir49rnPmt96-38" style="edgeStyle=orthogonalEdgeStyle;rounded=0;orthogonalLoop=1;jettySize=auto;html=1;entryX=0.5;entryY=0;entryDx=0;entryDy=0;" edge="1" parent="1" source="HXEkVQRq5ir49rnPmt96-39" target="HXEkVQRq5ir49rnPmt96-47">
          <mxGeometry relative="1" as="geometry" />
        </mxCell>
        <mxCell id="HXEkVQRq5ir49rnPmt96-39" value="enigma_jhud" style="swimlane;fontStyle=0;childLayout=stackLayout;horizontal=1;startSize=26;fillColor=none;horizontalStack=0;resizeParent=1;resizeParentMax=0;resizeLast=0;collapsible=1;marginBottom=0;" vertex="1" parent="1">
          <mxGeometry x="80" y="230" width="210" height="220" as="geometry" />
        </mxCell>
        <mxCell id="HXEkVQRq5ir49rnPmt96-40" style="edgeStyle=orthogonalEdgeStyle;rounded=0;orthogonalLoop=1;jettySize=auto;html=1;entryX=-0.003;entryY=0.538;entryDx=0;entryDy=0;entryPerimeter=0;" edge="1" parent="1" source="HXEkVQRq5ir49rnPmt96-44" target="HXEkVQRq5ir49rnPmt96-61">
          <mxGeometry relative="1" as="geometry" />
        </mxCell>
        <mxCell id="HXEkVQRq5ir49rnPmt96-41" style="edgeStyle=orthogonalEdgeStyle;rounded=0;orthogonalLoop=1;jettySize=auto;html=1;entryX=0.425;entryY=0.001;entryDx=0;entryDy=0;entryPerimeter=0;" edge="1" parent="1" source="HXEkVQRq5ir49rnPmt96-44" target="HXEkVQRq5ir49rnPmt96-49">
          <mxGeometry relative="1" as="geometry" />
        </mxCell>
        <mxCell id="HXEkVQRq5ir49rnPmt96-42" style="edgeStyle=orthogonalEdgeStyle;rounded=0;orthogonalLoop=1;jettySize=auto;html=1;entryX=0.5;entryY=0;entryDx=0;entryDy=0;" edge="1" parent="1" source="HXEkVQRq5ir49rnPmt96-44" target="HXEkVQRq5ir49rnPmt96-62">
          <mxGeometry relative="1" as="geometry" />
        </mxCell>
        <mxCell id="HXEkVQRq5ir49rnPmt96-43" style="edgeStyle=orthogonalEdgeStyle;rounded=0;orthogonalLoop=1;jettySize=auto;html=1;entryX=0;entryY=0.5;entryDx=0;entryDy=0;exitX=0.913;exitY=0.5;exitDx=0;exitDy=0;exitPerimeter=0;" edge="1" parent="1" source="HXEkVQRq5ir49rnPmt96-44" target="HXEkVQRq5ir49rnPmt96-57">
          <mxGeometry relative="1" as="geometry" />
        </mxCell>
        <mxCell id="HXEkVQRq5ir49rnPmt96-44" value="&lt;pre class=&quot;awsui_root_18wu0_v2spj_3 awsui_box_18wu0_v2spj_16 awsui_pre-variant_18wu0_v2spj_16 awsui_color-default_18wu0_v2spj_16 awsui_font-size-body-s_18wu0_v2spj_137 awsui_font-weight-default_18wu0_v2spj_72&quot; style=&quot;padding: 0.4rem ; margin: 0px ; overflow: auto ; background: rgb(255 , 255 , 255) ; font-weight: 400 ; color: rgb(22 , 25 , 31) ; letter-spacing: normal ; font-style: normal ; text-align: left ; text-indent: 0px ; text-transform: none ; word-spacing: 0px&quot;&gt;  `fips` bigint, &lt;br&gt;  `admin2` string, &lt;br&gt;  `province_state` string, &lt;br&gt;  `country_region` string, &lt;br&gt;  `last_update` string, &lt;br&gt;  `latitude` double, &lt;br&gt;  `longitude` double, &lt;br&gt;  `confirmed` bigint, &lt;br&gt;  `deaths` bigint, &lt;br&gt;  `recovered` bigint, &lt;br&gt;  `active` string, &lt;br&gt;  `combined_key` string)&lt;/pre&gt;" style="text;whiteSpace=wrap;html=1;" vertex="1" parent="1">
          <mxGeometry x="80" y="250" width="230" height="200" as="geometry" />
        </mxCell>
        <mxCell id="HXEkVQRq5ir49rnPmt96-45" value="us_county" style="swimlane;fontStyle=0;childLayout=stackLayout;horizontal=1;startSize=26;fillColor=none;horizontalStack=0;resizeParent=1;resizeParentMax=0;resizeLast=0;collapsible=1;marginBottom=0;" vertex="1" parent="1">
          <mxGeometry x="260" y="-30" width="190" height="150" as="geometry" />
        </mxCell>
        <mxCell id="HXEkVQRq5ir49rnPmt96-46" value="&lt;pre class=&quot;awsui_root_18wu0_v2spj_3 awsui_box_18wu0_v2spj_16 awsui_pre-variant_18wu0_v2spj_16 awsui_color-default_18wu0_v2spj_16 awsui_font-size-body-s_18wu0_v2spj_137 awsui_font-weight-default_18wu0_v2spj_72&quot; style=&quot;padding: 0.4rem ; margin: 0px ; overflow: auto ; background: rgb(255 , 255 , 255) ; font-weight: 400 ; color: rgb(22 , 25 , 31) ; letter-spacing: normal ; font-style: normal ; text-align: left ; text-indent: 0px ; text-transform: none ; word-spacing: 0px&quot;&gt;&lt;pre class=&quot;awsui_root_18wu0_v2spj_3 awsui_box_18wu0_v2spj_16 awsui_pre-variant_18wu0_v2spj_16 awsui_color-default_18wu0_v2spj_16 awsui_font-size-body-s_18wu0_v2spj_137 awsui_font-weight-default_18wu0_v2spj_72&quot; style=&quot;padding: 0.4rem ; margin-top: 0px ; margin-bottom: 0px ; overflow: auto&quot;&gt;  `date` string, &lt;br&gt;  `county` string, &lt;br&gt;  `state` string, &lt;br&gt;  `fips` bigint, &lt;br&gt;  `cases` bigint, &lt;br&gt;  `deaths` bigint&lt;/pre&gt;&lt;/pre&gt;" style="text;whiteSpace=wrap;html=1;" vertex="1" parent="HXEkVQRq5ir49rnPmt96-45">
          <mxGeometry y="26" width="190" height="124" as="geometry" />
        </mxCell>
        <mxCell id="HXEkVQRq5ir49rnPmt96-47" value="us_states" style="swimlane;fontStyle=0;childLayout=stackLayout;horizontal=1;startSize=26;fillColor=none;horizontalStack=0;resizeParent=1;resizeParentMax=0;resizeLast=0;collapsible=1;marginBottom=0;" vertex="1" parent="1">
          <mxGeometry x="590" y="150" width="200" height="160" as="geometry" />
        </mxCell>
        <mxCell id="HXEkVQRq5ir49rnPmt96-48" value="&lt;pre class=&quot;awsui_root_18wu0_v2spj_3 awsui_box_18wu0_v2spj_16 awsui_pre-variant_18wu0_v2spj_16 awsui_color-default_18wu0_v2spj_16 awsui_font-size-body-s_18wu0_v2spj_137 awsui_font-weight-default_18wu0_v2spj_72&quot; style=&quot;padding: 0.4rem ; margin: 0px ; overflow: auto ; background: rgb(255 , 255 , 255) ; font-weight: 400 ; color: rgb(22 , 25 , 31) ; letter-spacing: normal ; font-style: normal ; text-align: left ; text-indent: 0px ; text-transform: none ; word-spacing: 0px&quot;&gt;&lt;pre class=&quot;awsui_root_18wu0_v2spj_3 awsui_box_18wu0_v2spj_16 awsui_pre-variant_18wu0_v2spj_16 awsui_color-default_18wu0_v2spj_16 awsui_font-size-body-s_18wu0_v2spj_137 awsui_font-weight-default_18wu0_v2spj_72&quot; style=&quot;padding: 0.4rem ; margin-top: 0px ; margin-bottom: 0px ; overflow: auto&quot;&gt;&lt;pre class=&quot;awsui_root_18wu0_v2spj_3 awsui_box_18wu0_v2spj_16 awsui_pre-variant_18wu0_v2spj_16 awsui_color-default_18wu0_v2spj_16 awsui_font-size-body-s_18wu0_v2spj_137 awsui_font-weight-default_18wu0_v2spj_72&quot; style=&quot;padding: 0.4rem ; margin-top: 0px ; margin-bottom: 0px ; overflow: auto&quot;&gt;  `date` string, &lt;br/&gt;  `state` string, &lt;br/&gt;  `fips` bigint, &lt;br/&gt;  `cases` bigint, &lt;br/&gt;  `deaths` bigint&lt;/pre&gt;&lt;/pre&gt;&lt;/pre&gt;" style="text;whiteSpace=wrap;html=1;" vertex="1" parent="HXEkVQRq5ir49rnPmt96-47">
          <mxGeometry y="26" width="200" height="134" as="geometry" />
        </mxCell>
        <mxCell id="HXEkVQRq5ir49rnPmt96-49" value="states_daily" style="swimlane;fontStyle=0;childLayout=stackLayout;horizontal=1;startSize=26;fillColor=none;horizontalStack=0;resizeParent=1;resizeParentMax=0;resizeLast=0;collapsible=1;marginBottom=0;" vertex="1" parent="1">
          <mxGeometry x="20" y="510" width="320" height="871" as="geometry" />
        </mxCell>
        <mxCell id="HXEkVQRq5ir49rnPmt96-50" value="&lt;pre class=&quot;awsui_root_18wu0_v2spj_3 awsui_box_18wu0_v2spj_16 awsui_pre-variant_18wu0_v2spj_16 awsui_color-default_18wu0_v2spj_16 awsui_font-size-body-s_18wu0_v2spj_137 awsui_font-weight-default_18wu0_v2spj_72&quot; style=&quot;padding: 0.4rem ; margin: 0px ; overflow: auto ; background: rgb(255 , 255 , 255) ; font-weight: 400 ; color: rgb(22 , 25 , 31) ; letter-spacing: normal ; font-style: normal ; text-align: left ; text-indent: 0px ; text-transform: none ; word-spacing: 0px&quot;&gt;&lt;pre class=&quot;awsui_root_18wu0_v2spj_3 awsui_box_18wu0_v2spj_16 awsui_pre-variant_18wu0_v2spj_16 awsui_color-default_18wu0_v2spj_16 awsui_font-size-body-s_18wu0_v2spj_137 awsui_font-weight-default_18wu0_v2spj_72&quot; style=&quot;padding: 0.4rem ; margin-top: 0px ; margin-bottom: 0px ; overflow: auto&quot;&gt; `date` bigint, &lt;br/&gt;  `state` string, &lt;br/&gt;  `positive` bigint, &lt;br/&gt;  `probablecases` bigint, &lt;br/&gt;  `negative` bigint, &lt;br/&gt;  `pending` bigint, &lt;br/&gt;  `totaltestresultssource` string, &lt;br/&gt;  `totaltestresults` bigint, &lt;br/&gt;  `hospitalizedcurrently` bigint, &lt;br/&gt;  `hospitalizedcumulative` bigint, &lt;br/&gt;  `inicucurrently` bigint, &lt;br/&gt;  `inicucumulative` bigint, &lt;br/&gt;  `onventilatorcurrently` bigint, &lt;br/&gt;  `onventilatorcumulative` bigint, &lt;br/&gt;  `recovered` bigint, &lt;br/&gt;  `lastupdateet` string, &lt;br/&gt;  `datemodified` string, &lt;br/&gt;  `checktimeet` string, &lt;br/&gt;  `death` bigint, &lt;br/&gt;  `hospitalized` bigint, &lt;br/&gt;  `hospitalizeddischarged` bigint, &lt;br/&gt;  `datechecked` string, &lt;br/&gt;  `totaltestsviral` bigint, &lt;br/&gt;  `positivetestsviral` bigint, &lt;br/&gt;  `negativetestsviral` bigint, &lt;br/&gt;  `positivecasesviral` bigint, &lt;br/&gt;  `deathconfirmed` bigint, &lt;br/&gt;  `deathprobable` bigint, &lt;br/&gt;  `totaltestencountersviral` bigint, &lt;br/&gt;  `totaltestspeopleviral` bigint, &lt;br/&gt;  `totaltestsantibody` bigint, &lt;br/&gt;  `positivetestsantibody` bigint, &lt;br/&gt;  `negativetestsantibody` bigint, &lt;br/&gt;  `totaltestspeopleantibody` bigint, &lt;br/&gt;  `positivetestspeopleantibody` bigint, &lt;br/&gt;  `negativetestspeopleantibody` bigint, &lt;br/&gt;  `totaltestspeopleantigen` bigint, &lt;br/&gt;  `positivetestspeopleantigen` bigint, &lt;br/&gt;  `totaltestsantigen` bigint, &lt;br/&gt;  `positivetestsantigen` bigint, &lt;br/&gt;  `fips` bigint, &lt;br/&gt;  `positiveincrease` bigint, &lt;br/&gt;  `negativeincrease` bigint, &lt;br/&gt;  `total` bigint, &lt;br/&gt;  `totaltestresultsincrease` bigint, &lt;br/&gt;  `posneg` bigint, &lt;br/&gt;  `dataqualitygrade` string, &lt;br/&gt;  `deathincrease` bigint, &lt;br/&gt;  `hospitalizedincrease` bigint, &lt;br/&gt;  `hash` string, &lt;br/&gt;  `commercialscore` bigint, &lt;br/&gt;  `negativeregularscore` bigint, &lt;br/&gt;  `negativescore` bigint, &lt;br/&gt;  `positivescore` bigint, &lt;br/&gt;  `score` bigint, &lt;br/&gt;  `grade` string&lt;/pre&gt;&lt;/pre&gt;" style="text;whiteSpace=wrap;html=1;" vertex="1" parent="HXEkVQRq5ir49rnPmt96-49">
          <mxGeometry y="26" width="320" height="845" as="geometry" />
        </mxCell>
        <mxCell id="HXEkVQRq5ir49rnPmt96-51" style="edgeStyle=orthogonalEdgeStyle;rounded=0;orthogonalLoop=1;jettySize=auto;html=1;entryX=-0.012;entryY=0.549;entryDx=0;entryDy=0;entryPerimeter=0;" edge="1" parent="1" source="HXEkVQRq5ir49rnPmt96-50" target="HXEkVQRq5ir49rnPmt96-61">
          <mxGeometry relative="1" as="geometry" />
        </mxCell>
        <mxCell id="HXEkVQRq5ir49rnPmt96-52" style="edgeStyle=orthogonalEdgeStyle;rounded=0;orthogonalLoop=1;jettySize=auto;html=1;entryX=0.5;entryY=0;entryDx=0;entryDy=0;" edge="1" parent="1" source="HXEkVQRq5ir49rnPmt96-50" target="HXEkVQRq5ir49rnPmt96-58">
          <mxGeometry relative="1" as="geometry" />
        </mxCell>
        <mxCell id="HXEkVQRq5ir49rnPmt96-53" value="&lt;pre class=&quot;awsui_root_18wu0_v2spj_3 awsui_box_18wu0_v2spj_16 awsui_pre-variant_18wu0_v2spj_16 awsui_color-default_18wu0_v2spj_16 awsui_font-size-body-s_18wu0_v2spj_137 awsui_font-weight-default_18wu0_v2spj_72&quot; style=&quot;padding: 0.4rem ; margin: 0px ; overflow: auto ; background: rgb(255 , 255 , 255) ; font-weight: 400 ; color: rgb(22 , 25 , 31) ; letter-spacing: normal ; font-style: normal ; text-align: left ; text-indent: 0px ; text-transform: none ; word-spacing: 0px&quot;&gt;&lt;pre class=&quot;awsui_root_18wu0_v2spj_3 awsui_box_18wu0_v2spj_16 awsui_pre-variant_18wu0_v2spj_16 awsui_color-default_18wu0_v2spj_16 awsui_font-size-body-s_18wu0_v2spj_137 awsui_font-weight-default_18wu0_v2spj_72&quot; style=&quot;padding: 0.4rem ; margin-top: 0px ; margin-bottom: 0px ; overflow: auto&quot;&gt;  `date` bigint, &lt;br&gt;  `states` bigint, &lt;br&gt;  `positive` bigint, &lt;br&gt;  `negative` bigint, &lt;br&gt;  `pending` bigint, &lt;br&gt;  `hospitalizedcurrently` bigint, &lt;br&gt;  `hospitalizedcumulative` bigint, &lt;br&gt;  `inicucurrently` bigint, &lt;br&gt;  `inicucumulative` bigint, &lt;br&gt;  `onventilatorcurrently` bigint, &lt;br&gt;  `onventilatorcumulative` bigint, &lt;br&gt;  `datechecked` string, &lt;br&gt;  `death` bigint, &lt;br&gt;  `hospitalized` bigint, &lt;br&gt;  `totaltestresults` bigint, &lt;br&gt;  `lastmodified` string, &lt;br&gt;  `recovered` string, &lt;br&gt;  `total` bigint, &lt;br&gt;  `posneg` bigint, &lt;br&gt;  `deathincrease` bigint, &lt;br&gt;  `hospitalizedincrease` bigint, &lt;br&gt;  `negativeincrease` bigint, &lt;br&gt;  `positiveincrease` bigint, &lt;br&gt;  `totaltestresultsincrease` bigint, &lt;br&gt;  `hash` string&lt;/pre&gt;&lt;/pre&gt;" style="text;whiteSpace=wrap;html=1;" vertex="1" parent="1">
          <mxGeometry x="440" y="385" width="230" height="200" as="geometry" />
        </mxCell>
        <mxCell id="HXEkVQRq5ir49rnPmt96-54" style="edgeStyle=orthogonalEdgeStyle;rounded=0;orthogonalLoop=1;jettySize=auto;html=1;entryX=0;entryY=0.5;entryDx=0;entryDy=0;" edge="1" parent="1" source="HXEkVQRq5ir49rnPmt96-57" target="HXEkVQRq5ir49rnPmt96-68">
          <mxGeometry relative="1" as="geometry" />
        </mxCell>
        <mxCell id="HXEkVQRq5ir49rnPmt96-55" style="edgeStyle=orthogonalEdgeStyle;rounded=0;orthogonalLoop=1;jettySize=auto;html=1;" edge="1" parent="1" source="HXEkVQRq5ir49rnPmt96-57" target="HXEkVQRq5ir49rnPmt96-66">
          <mxGeometry relative="1" as="geometry">
            <Array as="points">
              <mxPoint x="790" y="573" />
              <mxPoint x="790" y="618" />
            </Array>
          </mxGeometry>
        </mxCell>
        <mxCell id="HXEkVQRq5ir49rnPmt96-56" style="edgeStyle=orthogonalEdgeStyle;rounded=0;orthogonalLoop=1;jettySize=auto;html=1;entryX=1;entryY=0.25;entryDx=0;entryDy=0;" edge="1" parent="1" source="HXEkVQRq5ir49rnPmt96-57" target="HXEkVQRq5ir49rnPmt96-50">
          <mxGeometry relative="1" as="geometry" />
        </mxCell>
        <mxCell id="HXEkVQRq5ir49rnPmt96-57" value="us_daily" style="swimlane;fontStyle=0;childLayout=stackLayout;horizontal=1;startSize=26;fillColor=none;horizontalStack=0;resizeParent=1;resizeParentMax=0;resizeLast=0;collapsible=1;marginBottom=0;" vertex="1" parent="1">
          <mxGeometry x="450" y="365" width="290" height="415" as="geometry" />
        </mxCell>
        <mxCell id="HXEkVQRq5ir49rnPmt96-58" value="us_total_latest" style="swimlane;fontStyle=0;childLayout=stackLayout;horizontal=1;startSize=26;fillColor=none;horizontalStack=0;resizeParent=1;resizeParentMax=0;resizeLast=0;collapsible=1;marginBottom=0;" vertex="1" parent="1">
          <mxGeometry x="70" y="1430" width="290" height="320" as="geometry" />
        </mxCell>
        <mxCell id="HXEkVQRq5ir49rnPmt96-59" value="&lt;pre class=&quot;awsui_root_18wu0_v2spj_3 awsui_box_18wu0_v2spj_16 awsui_pre-variant_18wu0_v2spj_16 awsui_color-default_18wu0_v2spj_16 awsui_font-size-body-s_18wu0_v2spj_137 awsui_font-weight-default_18wu0_v2spj_72&quot; style=&quot;padding: 0.4rem ; margin: 0px ; overflow: auto ; background: rgb(255 , 255 , 255) ; font-weight: 400 ; color: rgb(22 , 25 , 31) ; letter-spacing: normal ; font-style: normal ; text-align: left ; text-indent: 0px ; text-transform: none ; word-spacing: 0px&quot;&gt;&lt;pre class=&quot;awsui_root_18wu0_v2spj_3 awsui_box_18wu0_v2spj_16 awsui_pre-variant_18wu0_v2spj_16 awsui_color-default_18wu0_v2spj_16 awsui_font-size-body-s_18wu0_v2spj_137 awsui_font-weight-default_18wu0_v2spj_72&quot; style=&quot;padding: 0.4rem ; margin-top: 0px ; margin-bottom: 0px ; overflow: auto&quot;&gt;  `positive` bigint, &lt;br&gt;  `negative` bigint, &lt;br&gt;  `pending` bigint, &lt;br&gt;  `hospitalizedcurrently` bigint, &lt;br&gt;  `hospitalizedcumulative` bigint, &lt;br&gt;  `inicucurrently` bigint, &lt;br&gt;  `inicucumulative` bigint, &lt;br&gt;  `onventilatorcurrently` bigint, &lt;br&gt;  `onventilatorcumulative` bigint, &lt;br&gt;  `recovered` bigint, &lt;br&gt;  `hash` string, &lt;br&gt;  `lastmodified` string, &lt;br&gt;  `death` bigint, &lt;br&gt;  `hospitalized` bigint, &lt;br&gt;  `total` bigint, &lt;br&gt;  `totaltestresults` bigint, &lt;br&gt;  `posneg` bigint, &lt;br&gt;  `notes` string&lt;/pre&gt;&lt;/pre&gt;" style="text;whiteSpace=wrap;html=1;" vertex="1" parent="1">
          <mxGeometry x="70" y="1450" width="230" height="200" as="geometry" />
        </mxCell>
        <mxCell id="HXEkVQRq5ir49rnPmt96-60" value="rearc_usa_hospital_beds" style="swimlane;fontStyle=0;childLayout=stackLayout;horizontal=1;startSize=26;fillColor=none;horizontalStack=0;resizeParent=1;resizeParentMax=0;resizeLast=0;collapsible=1;marginBottom=0;" vertex="1" parent="1">
          <mxGeometry x="550" y="970" width="350" height="400" as="geometry" />
        </mxCell>
        <mxCell id="HXEkVQRq5ir49rnPmt96-61" value="&lt;pre class=&quot;awsui_root_18wu0_v2spj_3 awsui_box_18wu0_v2spj_16 awsui_pre-variant_18wu0_v2spj_16 awsui_color-default_18wu0_v2spj_16 awsui_font-size-body-s_18wu0_v2spj_137 awsui_font-weight-default_18wu0_v2spj_72&quot; style=&quot;padding: 0.4rem ; margin: 0px ; overflow: auto ; background: rgb(255 , 255 , 255) ; text-align: left ; text-indent: 0px&quot;&gt;&lt;pre class=&quot;awsui_root_18wu0_v2spj_3 awsui_box_18wu0_v2spj_16 awsui_pre-variant_18wu0_v2spj_16 awsui_color-default_18wu0_v2spj_16 awsui_font-size-body-s_18wu0_v2spj_137 awsui_font-weight-default_18wu0_v2spj_72&quot; style=&quot;padding: 0.4rem ; margin-top: 0px ; margin-bottom: 0px ; overflow: auto&quot;&gt;&lt;pre class=&quot;awsui_root_18wu0_v2spj_3 awsui_box_18wu0_v2spj_16 awsui_pre-variant_18wu0_v2spj_16 awsui_color-default_18wu0_v2spj_16 awsui_font-size-body-s_18wu0_v2spj_137 awsui_font-weight-default_18wu0_v2spj_72&quot; style=&quot;padding: 0.4rem ; margin-top: 0px ; margin-bottom: 0px ; overflow: auto&quot;&gt;&lt;font color=&quot;#16191f&quot;&gt;  `objectid` int , &lt;br/&gt;  `hospital_name` string , &lt;br/&gt;  `hospital_type` string , &lt;br/&gt;  `hq_address` string , &lt;br/&gt;  `hq_address1` string , &lt;br/&gt;  `hq_city` string , &lt;br/&gt;  `hq_state` string , &lt;br/&gt;  `hq_zip_code` string , &lt;br/&gt;  `county_name` string , &lt;br/&gt;  `state_name` string , &lt;br/&gt;  `state_fips` string , &lt;br/&gt;  `cnty_fips` string , &lt;br/&gt;  `fips` string , &lt;br/&gt;  `num_licensed_beds` int , &lt;br/&gt;  `num_staffed_beds` int , &lt;br/&gt;  `num_icu_beds` int , &lt;br/&gt;  `adult_icu_beds` int , &lt;br/&gt;  `pedi_icu_beds` double , &lt;br/&gt;  `bed_utilization` double , &lt;br/&gt;  `avg_ventilator_usage` double , &lt;br/&gt;  `potential_increase_in_bed_capac` int , &lt;br/&gt;  `latitude` double , &lt;br/&gt;  `longtitude` double &lt;br&gt;&lt;/font&gt;&lt;/pre&gt;&lt;/pre&gt;&lt;/pre&gt;" style="text;whiteSpace=wrap;html=1;" vertex="1" parent="1">
          <mxGeometry x="550" y="990" width="320" height="370" as="geometry" />
        </mxCell>
        <mxCell id="HXEkVQRq5ir49rnPmt96-62" value="countrycode" style="swimlane;fontStyle=0;childLayout=stackLayout;horizontal=1;startSize=26;fillColor=none;horizontalStack=0;resizeParent=1;resizeParentMax=0;resizeLast=0;collapsible=1;marginBottom=0;" vertex="1" parent="1">
          <mxGeometry x="827" y="340" width="210" height="150" as="geometry" />
        </mxCell>
        <mxCell id="HXEkVQRq5ir49rnPmt96-63" value="&lt;pre class=&quot;awsui_root_18wu0_v2spj_3 awsui_box_18wu0_v2spj_16 awsui_pre-variant_18wu0_v2spj_16 awsui_color-default_18wu0_v2spj_16 awsui_font-size-body-s_18wu0_v2spj_137 awsui_font-weight-default_18wu0_v2spj_72&quot; style=&quot;padding: 0.4rem ; margin: 0px ; overflow: auto ; background: rgb(255 , 255 , 255) ; font-weight: 400 ; color: rgb(22 , 25 , 31) ; letter-spacing: normal ; font-style: normal ; text-align: left ; text-indent: 0px ; text-transform: none ; word-spacing: 0px&quot;&gt;&lt;pre class=&quot;awsui_root_18wu0_v2spj_3 awsui_box_18wu0_v2spj_16 awsui_pre-variant_18wu0_v2spj_16 awsui_color-default_18wu0_v2spj_16 awsui_font-size-body-s_18wu0_v2spj_137 awsui_font-weight-default_18wu0_v2spj_72&quot; style=&quot;padding: 0.4rem ; margin-top: 0px ; margin-bottom: 0px ; overflow: auto&quot;&gt;  `country` string, &lt;br&gt;  `alpha-2 code` string, &lt;br&gt;  `alpha-3 code` string, &lt;br&gt;  `numeric code` bigint, &lt;br&gt;  `latitude` double, &lt;br&gt;  `longitude` double&lt;/pre&gt;&lt;/pre&gt;" style="text;whiteSpace=wrap;html=1;" vertex="1" parent="HXEkVQRq5ir49rnPmt96-62">
          <mxGeometry y="26" width="210" height="124" as="geometry" />
        </mxCell>
        <mxCell id="HXEkVQRq5ir49rnPmt96-64" style="edgeStyle=orthogonalEdgeStyle;rounded=0;orthogonalLoop=1;jettySize=auto;html=1;" edge="1" parent="1" source="HXEkVQRq5ir49rnPmt96-65" target="HXEkVQRq5ir49rnPmt96-63">
          <mxGeometry relative="1" as="geometry" />
        </mxCell>
        <mxCell id="HXEkVQRq5ir49rnPmt96-65" value="county_population" style="swimlane;fontStyle=0;childLayout=stackLayout;horizontal=1;startSize=26;fillColor=none;horizontalStack=0;resizeParent=1;resizeParentMax=0;resizeLast=0;collapsible=1;marginBottom=0;" vertex="1" parent="1">
          <mxGeometry x="840" y="530" width="300" height="150" as="geometry" />
        </mxCell>
        <mxCell id="HXEkVQRq5ir49rnPmt96-66" value="&lt;pre class=&quot;awsui_root_18wu0_v2spj_3 awsui_box_18wu0_v2spj_16 awsui_pre-variant_18wu0_v2spj_16 awsui_color-default_18wu0_v2spj_16 awsui_font-size-body-s_18wu0_v2spj_137 awsui_font-weight-default_18wu0_v2spj_72&quot; style=&quot;padding: 0.4rem ; margin: 0px ; overflow: auto ; background: rgb(255 , 255 , 255) ; font-weight: 400 ; color: rgb(22 , 25 , 31) ; letter-spacing: normal ; font-style: normal ; text-align: left ; text-indent: 0px ; text-transform: none ; word-spacing: 0px&quot;&gt;&lt;pre class=&quot;awsui_root_18wu0_v2spj_3 awsui_box_18wu0_v2spj_16 awsui_pre-variant_18wu0_v2spj_16 awsui_color-default_18wu0_v2spj_16 awsui_font-size-body-s_18wu0_v2spj_137 awsui_font-weight-default_18wu0_v2spj_72&quot; style=&quot;padding: 0.4rem ; margin-top: 0px ; margin-bottom: 0px ; overflow: auto&quot;&gt;&lt;pre class=&quot;awsui_root_18wu0_v2spj_3 awsui_box_18wu0_v2spj_16 awsui_pre-variant_18wu0_v2spj_16 awsui_color-default_18wu0_v2spj_16 awsui_font-size-body-s_18wu0_v2spj_137 awsui_font-weight-default_18wu0_v2spj_72&quot; style=&quot;padding: 0.4rem ; margin-top: 0px ; margin-bottom: 0px ; overflow: auto&quot;&gt;  `id` string, &lt;br&gt;  `id2` bigint, &lt;br&gt;  `county` string, &lt;br&gt;  `state` string, &lt;br&gt;  `population estimate 2018` bigint&lt;/pre&gt;&lt;/pre&gt;&lt;/pre&gt;" style="text;whiteSpace=wrap;html=1;" vertex="1" parent="HXEkVQRq5ir49rnPmt96-65">
          <mxGeometry y="26" width="300" height="124" as="geometry" />
        </mxCell>
        <mxCell id="HXEkVQRq5ir49rnPmt96-67" value="states_abv" style="swimlane;fontStyle=0;childLayout=stackLayout;horizontal=1;startSize=26;fillColor=none;horizontalStack=0;resizeParent=1;resizeParentMax=0;resizeLast=0;collapsible=1;marginBottom=0;" vertex="1" parent="1">
          <mxGeometry x="840" y="720" width="180" height="120" as="geometry" />
        </mxCell>
        <mxCell id="HXEkVQRq5ir49rnPmt96-68" value="&lt;pre class=&quot;awsui_root_18wu0_v2spj_3 awsui_box_18wu0_v2spj_16 awsui_pre-variant_18wu0_v2spj_16 awsui_color-default_18wu0_v2spj_16 awsui_font-size-body-s_18wu0_v2spj_137 awsui_font-weight-default_18wu0_v2spj_72&quot; style=&quot;padding: 0.4rem ; margin: 0px ; overflow: auto ; background: rgb(255 , 255 , 255) ; text-align: left ; text-indent: 0px&quot;&gt;&lt;pre class=&quot;awsui_root_18wu0_v2spj_3 awsui_box_18wu0_v2spj_16 awsui_pre-variant_18wu0_v2spj_16 awsui_color-default_18wu0_v2spj_16 awsui_font-size-body-s_18wu0_v2spj_137 awsui_font-weight-default_18wu0_v2spj_72&quot; style=&quot;padding: 0.4rem ; margin-top: 0px ; margin-bottom: 0px ; overflow: auto&quot;&gt;&lt;pre class=&quot;awsui_root_18wu0_v2spj_3 awsui_box_18wu0_v2spj_16 awsui_pre-variant_18wu0_v2spj_16 awsui_color-default_18wu0_v2spj_16 awsui_font-size-body-s_18wu0_v2spj_137 awsui_font-weight-default_18wu0_v2spj_72&quot; style=&quot;padding: 0.4rem ; margin-top: 0px ; margin-bottom: 0px ; overflow: auto&quot;&gt;&lt;pre class=&quot;awsui_root_18wu0_v2spj_3 awsui_box_18wu0_v2spj_16 awsui_pre-variant_18wu0_v2spj_16 awsui_color-default_18wu0_v2spj_16 awsui_font-size-body-s_18wu0_v2spj_137 awsui_font-weight-default_18wu0_v2spj_72&quot; style=&quot;padding: 0.4rem ; margin-top: 0px ; margin-bottom: 0px ; overflow: auto&quot;&gt;&lt;font color=&quot;#16191f&quot;&gt;  `col0` string, &lt;br&gt;  `col1` string&lt;/font&gt;&lt;br&gt;&lt;/pre&gt;&lt;/pre&gt;&lt;/pre&gt;&lt;/pre&gt;" style="text;whiteSpace=wrap;html=1;" vertex="1" parent="HXEkVQRq5ir49rnPmt96-67">
          <mxGeometry y="26" width="180" height="94" as="geometry" />
        </mxCell>
        <mxCell id="HXEkVQRq5ir49rnPmt96-69" style="edgeStyle=orthogonalEdgeStyle;rounded=0;orthogonalLoop=1;jettySize=auto;html=1;entryX=0.5;entryY=0;entryDx=0;entryDy=0;" edge="1" parent="1" source="HXEkVQRq5ir49rnPmt96-66" target="HXEkVQRq5ir49rnPmt96-67">
          <mxGeometry relative="1" as="geometry" />
        </mxCell>
      </root>
    </mxGraphModel>
  </diagram>
</mxfile>
